<mxfile host="Electron" modified="2024-05-20T15:16:32.674Z" agent="Mozilla/5.0 (Windows NT 10.0; Win64; x64) AppleWebKit/537.36 (KHTML, like Gecko) draw.io/24.0.4 Chrome/120.0.6099.109 Electron/28.1.0 Safari/537.36" etag="TWbYcdoXaC6xJljmeEln" version="24.0.4" type="device">
  <diagram name="PÃ¡gina-1" id="rnQ-FR-HW7EkudksvXDS">
    <mxGraphModel dx="1663" dy="640" grid="1" gridSize="10" guides="1" tooltips="1" connect="1" arrows="1" fold="1" page="1" pageScale="1" pageWidth="827" pageHeight="1169" math="0" shadow="0">
      <root>
        <mxCell id="0" />
        <mxCell id="1" parent="0" />
        <mxCell id="elaqadn__Zsb7Rm-6npa-5" value="&amp;lt;&amp;lt;abstract&amp;gt;&amp;gt; Estrategia" style="swimlane;fontStyle=0;childLayout=stackLayout;horizontal=1;startSize=26;fillColor=#F45B69;horizontalStack=0;resizeParent=1;resizeParentMax=0;resizeLast=0;collapsible=1;marginBottom=0;whiteSpace=wrap;html=1;fontColor=#E4FDE1;strokeColor=#028090;rounded=1;labelBackgroundColor=none;swimlaneFillColor=default;" parent="1" vertex="1">
          <mxGeometry x="-565" y="260" width="320" height="70" as="geometry" />
        </mxCell>
        <mxCell id="G7_AeDBWMxpFMUD4EurX-3" value="&lt;div&gt;+ generarSugerencia( deco:Decodificacor)&amp;nbsp;&lt;/div&gt;&lt;div&gt;+&amp;lt;&amp;lt;abstract&amp;gt;&amp;gt;sugerencia(deco:Decodificacor ): Pelicula[*]&lt;/div&gt;&lt;div style=&quot;background-color:#2f2f2f;padding:0px 0px 0px 2px;&quot;&gt;&lt;div style=&quot;color: rgb(170, 170, 170); font-family: Consolas; font-size: 10pt; white-space: pre;&quot;&gt;&lt;p style=&quot;background-color:#373737;margin:0;&quot;&gt;&lt;span style=&quot;color:#d9e8f7;&quot;&gt;&lt;/span&gt;&lt;/p&gt;&lt;/div&gt;&lt;/div&gt;" style="text;strokeColor=none;fillColor=none;align=left;verticalAlign=top;spacingLeft=4;spacingRight=4;overflow=hidden;rotatable=0;points=[[0,0.5],[1,0.5]];portConstraint=eastwest;whiteSpace=wrap;html=1;rounded=1;labelBackgroundColor=none;fontColor=#E4FDE1;" parent="elaqadn__Zsb7Rm-6npa-5" vertex="1">
          <mxGeometry y="26" width="320" height="44" as="geometry" />
        </mxCell>
        <mxCell id="FvhJpYlZC_VarG8ZefV4-1" value="&lt;span style=&quot;text-align: left;&quot;&gt;SugerenciaSimilaridad&lt;/span&gt;" style="swimlane;fontStyle=0;childLayout=stackLayout;horizontal=1;startSize=26;fillColor=#F45B69;horizontalStack=0;resizeParent=1;resizeParentMax=0;resizeLast=0;collapsible=1;marginBottom=0;whiteSpace=wrap;html=1;fontColor=#E4FDE1;strokeColor=#028090;rounded=1;labelBackgroundColor=none;swimlaneFillColor=default;" parent="1" vertex="1">
          <mxGeometry x="-505" y="160" width="200" height="70" as="geometry" />
        </mxCell>
        <mxCell id="yGItyIUntrG3wO1k8icg-23" value="&lt;div&gt;&lt;span style=&quot;background-color: initial;&quot;&gt;+ sugerencia(deco:Decodificacor): Pelicula [*]&lt;/span&gt;&lt;br&gt;&lt;/div&gt;&lt;div style=&quot;background-color:#2f2f2f;padding:0px 0px 0px 2px;&quot;&gt;&lt;div style=&quot;color: rgb(170, 170, 170); font-family: Consolas; font-size: 10pt; white-space: pre;&quot;&gt;&lt;p style=&quot;background-color:#373737;margin:0;&quot;&gt;&lt;span style=&quot;color:#d9e8f7;&quot;&gt;&lt;/span&gt;&lt;/p&gt;&lt;/div&gt;&lt;/div&gt;" style="text;strokeColor=none;fillColor=none;align=left;verticalAlign=top;spacingLeft=4;spacingRight=4;overflow=hidden;rotatable=0;points=[[0,0.5],[1,0.5]];portConstraint=eastwest;whiteSpace=wrap;html=1;rounded=1;labelBackgroundColor=none;fontColor=#E4FDE1;" vertex="1" parent="FvhJpYlZC_VarG8ZefV4-1">
          <mxGeometry y="26" width="200" height="44" as="geometry" />
        </mxCell>
        <mxCell id="FvhJpYlZC_VarG8ZefV4-4" value="&lt;span style=&quot;text-align: left;&quot;&gt;SugerenciaNovedad&lt;/span&gt;" style="swimlane;fontStyle=0;childLayout=stackLayout;horizontal=1;startSize=26;fillColor=#F45B69;horizontalStack=0;resizeParent=1;resizeParentMax=0;resizeLast=0;collapsible=1;marginBottom=0;whiteSpace=wrap;html=1;fontColor=#E4FDE1;strokeColor=#028090;rounded=1;labelBackgroundColor=none;swimlaneFillColor=default;" parent="1" vertex="1">
          <mxGeometry x="-740" y="160" width="200" height="70" as="geometry" />
        </mxCell>
        <mxCell id="yGItyIUntrG3wO1k8icg-22" value="&lt;div&gt;&lt;span style=&quot;background-color: initial;&quot;&gt;+ sugerencia(deco:Decodificacor): Pelicula [*]&lt;/span&gt;&lt;br&gt;&lt;/div&gt;&lt;div style=&quot;background-color:#2f2f2f;padding:0px 0px 0px 2px;&quot;&gt;&lt;div style=&quot;color: rgb(170, 170, 170); font-family: Consolas; font-size: 10pt; white-space: pre;&quot;&gt;&lt;p style=&quot;background-color:#373737;margin:0;&quot;&gt;&lt;span style=&quot;color:#d9e8f7;&quot;&gt;&lt;/span&gt;&lt;/p&gt;&lt;/div&gt;&lt;/div&gt;" style="text;strokeColor=none;fillColor=none;align=left;verticalAlign=top;spacingLeft=4;spacingRight=4;overflow=hidden;rotatable=0;points=[[0,0.5],[1,0.5]];portConstraint=eastwest;whiteSpace=wrap;html=1;rounded=1;labelBackgroundColor=none;fontColor=#E4FDE1;" vertex="1" parent="FvhJpYlZC_VarG8ZefV4-4">
          <mxGeometry y="26" width="200" height="44" as="geometry" />
        </mxCell>
        <mxCell id="FvhJpYlZC_VarG8ZefV4-8" value="" style="endArrow=none;dashed=1;html=1;dashPattern=1 3;strokeWidth=2;rounded=0;fillColor=#F45B69;strokeColor=#028090;labelBackgroundColor=none;fontColor=default;" parent="1" edge="1">
          <mxGeometry width="50" height="50" relative="1" as="geometry">
            <mxPoint x="-60" y="240" as="sourcePoint" />
            <mxPoint x="-750" y="240" as="targetPoint" />
          </mxGeometry>
        </mxCell>
        <mxCell id="yGItyIUntrG3wO1k8icg-4" style="edgeStyle=orthogonalEdgeStyle;rounded=0;orthogonalLoop=1;jettySize=auto;html=1;exitX=0.204;exitY=0.983;exitDx=0;exitDy=0;exitPerimeter=0;labelBackgroundColor=none;strokeColor=#028090;fontColor=default;" edge="1" parent="1" target="FvhJpYlZC_VarG8ZefV4-16">
          <mxGeometry relative="1" as="geometry">
            <mxPoint x="-490.8399999999999" y="478.91200000000015" as="sourcePoint" />
            <mxPoint x="-490" y="610" as="targetPoint" />
            <Array as="points">
              <mxPoint x="-500" y="479" />
            </Array>
          </mxGeometry>
        </mxCell>
        <mxCell id="yGItyIUntrG3wO1k8icg-9" style="edgeStyle=orthogonalEdgeStyle;rounded=0;orthogonalLoop=1;jettySize=auto;html=1;labelBackgroundColor=none;strokeColor=#028090;fontColor=default;" edge="1" parent="1" source="FvhJpYlZC_VarG8ZefV4-10" target="FvhJpYlZC_VarG8ZefV4-16">
          <mxGeometry relative="1" as="geometry">
            <Array as="points">
              <mxPoint x="-320" y="570" />
              <mxPoint x="-320" y="570" />
            </Array>
          </mxGeometry>
        </mxCell>
        <mxCell id="yGItyIUntrG3wO1k8icg-15" style="edgeStyle=orthogonalEdgeStyle;rounded=0;orthogonalLoop=1;jettySize=auto;html=1;labelBackgroundColor=none;strokeColor=#028090;fontColor=default;" edge="1" parent="1" source="FvhJpYlZC_VarG8ZefV4-10" target="elaqadn__Zsb7Rm-6npa-5">
          <mxGeometry relative="1" as="geometry" />
        </mxCell>
        <mxCell id="FvhJpYlZC_VarG8ZefV4-10" value="De&lt;span style=&quot;background-color: initial;&quot;&gt;codificador&lt;/span&gt;" style="swimlane;fontStyle=0;childLayout=stackLayout;horizontal=1;startSize=26;fillColor=#F45B69;horizontalStack=0;resizeParent=1;resizeParentMax=0;resizeLast=0;collapsible=1;marginBottom=0;whiteSpace=wrap;html=1;fontColor=#E4FDE1;strokeColor=#028090;rounded=1;labelBackgroundColor=none;swimlaneFillColor=default;" parent="1" vertex="1">
          <mxGeometry x="-550" y="364" width="290" height="170" as="geometry" />
        </mxCell>
        <mxCell id="yGItyIUntrG3wO1k8icg-21" value="&lt;div&gt;+ cambiarEstrategia(nuevaEstrategia :Estrategia)&lt;/div&gt;&lt;div&gt;+ generarSugerencia(deco: Decodificador): Pelicula[*]&lt;/div&gt;&lt;div&gt;+ nuevaPeliculaEnGrilla(peli : Pelicula)&lt;/div&gt;&lt;div&gt;+ reproducirPelicula(peli:Pelicula)&lt;/div&gt;&lt;div&gt;+ generarSugerencia(): Pelicula [*]&lt;/div&gt;&lt;div&gt;+ fueReproducida(pelicula:Pelicula): Boolean&lt;/div&gt;&lt;div&gt;+ getGrilla(): Pelicula[*]&lt;/div&gt;&lt;div&gt;+ getReproducidas(): Pelicula[*&lt;br&gt;&lt;/div&gt;&lt;div style=&quot;background-color:#2f2f2f;padding:0px 0px 0px 2px;&quot;&gt;&lt;div style=&quot;color: rgb(170, 170, 170); font-family: Consolas; font-size: 10pt; white-space: pre;&quot;&gt;&lt;p style=&quot;background-color:#373737;margin:0;&quot;&gt;&lt;span style=&quot;color:#d9e8f7;&quot;&gt;&lt;/span&gt;&lt;/p&gt;&lt;/div&gt;&lt;/div&gt;" style="text;strokeColor=none;fillColor=none;align=left;verticalAlign=top;spacingLeft=4;spacingRight=4;overflow=hidden;rotatable=0;points=[[0,0.5],[1,0.5]];portConstraint=eastwest;whiteSpace=wrap;html=1;rounded=1;labelBackgroundColor=none;fontColor=#E4FDE1;" vertex="1" parent="FvhJpYlZC_VarG8ZefV4-10">
          <mxGeometry y="26" width="290" height="144" as="geometry" />
        </mxCell>
        <mxCell id="FvhJpYlZC_VarG8ZefV4-16" value="Pelicula" style="swimlane;fontStyle=0;childLayout=stackLayout;horizontal=1;startSize=26;fillColor=#F45B69;horizontalStack=0;resizeParent=1;resizeParentMax=0;resizeLast=0;collapsible=1;marginBottom=0;whiteSpace=wrap;html=1;fontColor=#E4FDE1;strokeColor=#028090;rounded=1;labelBackgroundColor=none;swimlaneFillColor=default;" parent="1" vertex="1">
          <mxGeometry x="-550" y="574" width="290" height="160" as="geometry" />
        </mxCell>
        <mxCell id="yGItyIUntrG3wO1k8icg-14" style="edgeStyle=orthogonalEdgeStyle;rounded=0;orthogonalLoop=1;jettySize=auto;html=1;curved=1;labelBackgroundColor=none;strokeColor=#028090;fontColor=default;" edge="1" parent="FvhJpYlZC_VarG8ZefV4-16" source="yGItyIUntrG3wO1k8icg-3">
          <mxGeometry relative="1" as="geometry">
            <mxPoint x="300" y="100" as="targetPoint" />
            <Array as="points">
              <mxPoint x="330" y="53" />
              <mxPoint x="330" y="100" />
            </Array>
          </mxGeometry>
        </mxCell>
        <mxCell id="yGItyIUntrG3wO1k8icg-3" value="-&amp;nbsp;&lt;span style=&quot;background-color: initial;&quot;&gt;tÃ­tulo : String&lt;/span&gt;&lt;div&gt;&lt;span style=&quot;background-color: initial;&quot;&gt;- anioDeEstreno: Integer&lt;/span&gt;&lt;div&gt;- puntaje : Real&lt;/div&gt;&lt;/div&gt;" style="text;strokeColor=none;fillColor=none;align=left;verticalAlign=top;spacingLeft=4;spacingRight=4;overflow=hidden;rotatable=0;points=[[0,0.5],[1,0.5]];portConstraint=eastwest;whiteSpace=wrap;html=1;labelBackgroundColor=none;fontColor=#E4FDE1;" vertex="1" parent="FvhJpYlZC_VarG8ZefV4-16">
          <mxGeometry y="26" width="290" height="54" as="geometry" />
        </mxCell>
        <mxCell id="yGItyIUntrG3wO1k8icg-2" value="" style="line;strokeWidth=1;fillColor=none;align=left;verticalAlign=middle;spacingTop=-1;spacingLeft=3;spacingRight=3;rotatable=0;labelPosition=right;points=[];portConstraint=eastwest;strokeColor=#028090;labelBackgroundColor=none;fontColor=#E4FDE1;" vertex="1" parent="FvhJpYlZC_VarG8ZefV4-16">
          <mxGeometry y="80" width="290" height="8" as="geometry" />
        </mxCell>
        <mxCell id="FvhJpYlZC_VarG8ZefV4-17" value="&lt;div&gt;+&amp;lt;&amp;lt;create&amp;gt;&amp;gt; Pelicula(titulo:String, anio:Integer, puntaje: Real)&lt;/div&gt;&lt;div&gt;+ addSimilares(peli:Pelicula)&lt;/div&gt;&lt;div&gt;+ getSimilares(): pelicula[*]&lt;/div&gt;&lt;div style=&quot;background-color:#2f2f2f;padding:0px 0px 0px 2px;&quot;&gt;&lt;div style=&quot;color: rgb(170, 170, 170); font-family: Consolas; font-size: 10pt; white-space: pre;&quot;&gt;&lt;p style=&quot;background-color:#373737;margin:0;&quot;&gt;&lt;span style=&quot;color:#d9e8f7;&quot;&gt;&lt;/span&gt;&lt;/p&gt;&lt;/div&gt;&lt;/div&gt;" style="text;strokeColor=none;fillColor=none;align=left;verticalAlign=top;spacingLeft=4;spacingRight=4;overflow=hidden;rotatable=0;points=[[0,0.5],[1,0.5]];portConstraint=eastwest;whiteSpace=wrap;html=1;rounded=1;labelBackgroundColor=none;fontColor=#E4FDE1;" parent="FvhJpYlZC_VarG8ZefV4-16" vertex="1">
          <mxGeometry y="88" width="290" height="72" as="geometry" />
        </mxCell>
        <mxCell id="FvhJpYlZC_VarG8ZefV4-23" value="" style="endArrow=none;dashed=1;html=1;dashPattern=1 3;strokeWidth=2;rounded=0;fillColor=#F45B69;strokeColor=#028090;labelBackgroundColor=none;fontColor=default;" parent="1" edge="1">
          <mxGeometry width="50" height="50" relative="1" as="geometry">
            <mxPoint x="-60" y="240" as="sourcePoint" />
            <mxPoint x="-60" y="140" as="targetPoint" />
          </mxGeometry>
        </mxCell>
        <mxCell id="FvhJpYlZC_VarG8ZefV4-24" value="" style="endArrow=none;dashed=1;html=1;dashPattern=1 3;strokeWidth=2;rounded=0;fillColor=#F45B69;strokeColor=#028090;labelBackgroundColor=none;fontColor=default;" parent="1" edge="1">
          <mxGeometry width="50" height="50" relative="1" as="geometry">
            <mxPoint x="-750" y="240" as="sourcePoint" />
            <mxPoint x="-750" y="145" as="targetPoint" />
          </mxGeometry>
        </mxCell>
        <mxCell id="FvhJpYlZC_VarG8ZefV4-26" value="" style="endArrow=none;dashed=1;html=1;dashPattern=1 3;strokeWidth=2;rounded=0;fillColor=#F45B69;strokeColor=#028090;labelBackgroundColor=none;fontColor=default;" parent="1" edge="1">
          <mxGeometry width="50" height="50" relative="1" as="geometry">
            <mxPoint x="-60" y="140" as="sourcePoint" />
            <mxPoint x="-750" y="140" as="targetPoint" />
          </mxGeometry>
        </mxCell>
        <mxCell id="FvhJpYlZC_VarG8ZefV4-25" value="CONCRETE STRATEGY" style="text;html=1;align=center;verticalAlign=middle;resizable=0;points=[];autosize=1;strokeColor=#B20000;fillColor=#e51400;rounded=1;labelBackgroundColor=none;shadow=0;textShadow=0;glass=0;fontColor=#ffffff;sketch=1;curveFitting=1;jiggle=2;" parent="1" vertex="1">
          <mxGeometry x="-720" y="110" width="160" height="30" as="geometry" />
        </mxCell>
        <mxCell id="FvhJpYlZC_VarG8ZefV4-34" value="" style="endArrow=block;dashed=1;endFill=0;endSize=12;html=1;rounded=0;labelBackgroundColor=none;strokeColor=#028090;fontColor=default;" parent="1" source="FvhJpYlZC_VarG8ZefV4-4" target="elaqadn__Zsb7Rm-6npa-5" edge="1">
          <mxGeometry width="160" relative="1" as="geometry">
            <mxPoint x="-740" y="270" as="sourcePoint" />
            <mxPoint x="-580" y="270" as="targetPoint" />
          </mxGeometry>
        </mxCell>
        <mxCell id="FvhJpYlZC_VarG8ZefV4-35" value="" style="endArrow=block;dashed=1;endFill=0;endSize=12;html=1;rounded=0;labelBackgroundColor=none;strokeColor=#028090;fontColor=default;" parent="1" source="FvhJpYlZC_VarG8ZefV4-1" target="elaqadn__Zsb7Rm-6npa-5" edge="1">
          <mxGeometry width="160" relative="1" as="geometry">
            <mxPoint x="-462" y="240" as="sourcePoint" />
            <mxPoint x="-423" y="280" as="targetPoint" />
          </mxGeometry>
        </mxCell>
        <mxCell id="elaqadn__Zsb7Rm-6npa-68" value="CONTEXT" style="text;html=1;align=center;verticalAlign=middle;resizable=0;points=[];autosize=1;strokeColor=#B20000;fillColor=#e51400;rounded=1;labelBackgroundColor=none;shadow=0;textShadow=0;glass=0;fontColor=#ffffff;sketch=1;curveFitting=1;jiggle=2;" parent="1" vertex="1">
          <mxGeometry x="-645" y="420" width="80" height="30" as="geometry" />
        </mxCell>
        <mxCell id="FvhJpYlZC_VarG8ZefV4-54" value="STRATEGY" style="text;html=1;align=center;verticalAlign=middle;resizable=0;points=[];autosize=1;strokeColor=#B20000;fillColor=#e51400;rounded=1;labelBackgroundColor=none;shadow=0;textShadow=0;glass=0;fontColor=#ffffff;rotation=0;sketch=1;curveFitting=1;jiggle=2;" parent="1" vertex="1">
          <mxGeometry x="-660" y="270" width="90" height="30" as="geometry" />
        </mxCell>
        <mxCell id="yGItyIUntrG3wO1k8icg-5" value="&lt;div&gt;1..*&lt;/div&gt;- grilla" style="text;html=1;align=center;verticalAlign=middle;resizable=0;points=[];autosize=1;strokeColor=none;fillColor=none;labelBackgroundColor=none;fontColor=#E4FDE1;" vertex="1" parent="1">
          <mxGeometry x="-505" y="534" width="60" height="40" as="geometry" />
        </mxCell>
        <mxCell id="yGItyIUntrG3wO1k8icg-7" value="&lt;div&gt;0..*&lt;br&gt;&lt;/div&gt;- reproducidas" style="text;html=1;align=center;verticalAlign=middle;resizable=0;points=[];autosize=1;strokeColor=none;fillColor=none;labelBackgroundColor=none;fontColor=#E4FDE1;" vertex="1" parent="1">
          <mxGeometry x="-330" y="534" width="100" height="40" as="geometry" />
        </mxCell>
        <mxCell id="yGItyIUntrG3wO1k8icg-11" value="&lt;div&gt;0..*&lt;/div&gt;- similares" style="text;html=1;align=center;verticalAlign=middle;resizable=0;points=[];autosize=1;strokeColor=none;fillColor=none;labelBackgroundColor=none;fontColor=#E4FDE1;" vertex="1" parent="1">
          <mxGeometry x="-230" y="630" width="80" height="40" as="geometry" />
        </mxCell>
        <mxCell id="yGItyIUntrG3wO1k8icg-16" value="&lt;span style=&quot;text-align: left;&quot;&gt;SugerenciaPuntaje&lt;/span&gt;" style="swimlane;fontStyle=0;childLayout=stackLayout;horizontal=1;startSize=26;fillColor=#F45B69;horizontalStack=0;resizeParent=1;resizeParentMax=0;resizeLast=0;collapsible=1;marginBottom=0;whiteSpace=wrap;html=1;fontColor=#E4FDE1;strokeColor=#028090;rounded=1;labelBackgroundColor=none;swimlaneFillColor=default;" vertex="1" parent="1">
          <mxGeometry x="-270" y="160" width="200" height="70" as="geometry" />
        </mxCell>
        <mxCell id="yGItyIUntrG3wO1k8icg-24" value="&lt;div&gt;&lt;span style=&quot;background-color: initial;&quot;&gt;+ sugerencia(deco:Decodificacor): Pelicula [*]&lt;/span&gt;&lt;br&gt;&lt;/div&gt;&lt;div style=&quot;background-color:#2f2f2f;padding:0px 0px 0px 2px;&quot;&gt;&lt;div style=&quot;color: rgb(170, 170, 170); font-family: Consolas; font-size: 10pt; white-space: pre;&quot;&gt;&lt;p style=&quot;background-color:#373737;margin:0;&quot;&gt;&lt;span style=&quot;color:#d9e8f7;&quot;&gt;&lt;/span&gt;&lt;/p&gt;&lt;/div&gt;&lt;/div&gt;" style="text;strokeColor=none;fillColor=none;align=left;verticalAlign=top;spacingLeft=4;spacingRight=4;overflow=hidden;rotatable=0;points=[[0,0.5],[1,0.5]];portConstraint=eastwest;whiteSpace=wrap;html=1;rounded=1;labelBackgroundColor=none;fontColor=#E4FDE1;" vertex="1" parent="yGItyIUntrG3wO1k8icg-16">
          <mxGeometry y="26" width="200" height="44" as="geometry" />
        </mxCell>
        <mxCell id="yGItyIUntrG3wO1k8icg-18" value="" style="endArrow=block;dashed=1;endFill=0;endSize=12;html=1;rounded=0;labelBackgroundColor=none;strokeColor=#028090;fontColor=default;" edge="1" parent="1" source="yGItyIUntrG3wO1k8icg-16" target="elaqadn__Zsb7Rm-6npa-5">
          <mxGeometry width="160" relative="1" as="geometry">
            <mxPoint x="-61.99999999999977" y="252.55972696245726" as="sourcePoint" />
            <mxPoint x="-260" y="310" as="targetPoint" />
          </mxGeometry>
        </mxCell>
      </root>
    </mxGraphModel>
  </diagram>
</mxfile>
